<?xml version="1.0" standalone="no"?><!DOCTYPE svg PUBLIC "-//W3C//DTD SVG 1.1//EN" "http://www.w3.org/Graphics/SVG/1.1/DTD/svg11.dtd"><svg class="icon" height="512" viewBox="0 0 1632 1024" version="1.1" xmlns="http://www.w3.org/2000/svg"><path d="M1524.48 304H182.4c-35.2 0-64-28.8-64-64v-21.12c0-35.2 28.8-64 64-64h1342.08c35.2 0 64 28.8 64 64v21.12c0 35.2-28.8 64-64 64zM1397.76 507.52h-414.08c-30.72 0-55.68-24.96-55.68-55.68 0-30.72 24.96-55.68 55.68-55.68h414.08c30.72 0 55.68 24.96 55.68 55.68 0 30.72-24.96 55.68-55.68 55.68z" fill="#EDF0F5" /><path d="M1047.04 652.16H310.4c-54.4 0-98.56-44.16-98.56-98.56S256 454.4 310.4 454.4h736.64c54.4 0 98.56 44.16 98.56 98.56 0.64 54.4-44.16 99.2-98.56 99.2z" fill="#EDF0F5" /><path d="M1082.24 705.28H64c-35.2 0-64-28.8-64-64s28.8-64 64-64h1018.24c35.2 0 64 28.8 64 64s-28.8 64-64 64z" fill="#EDF0F5" /><path d="M1280.64 833.28H262.4c-35.2 0-64-28.8-64-64s28.8-64 64-64h1018.24c35.2 0 64 28.8 64 64s-28.8 64-64 64z" fill="#EDF0F5" /><path d="M1357.44 730.88h-216.32c-30.72 0-55.68-24.96-55.68-55.68 0-30.72 24.96-55.68 55.68-55.68h216.32c30.72 0 55.68 24.96 55.68 55.68 0 30.72-24.96 55.68-55.68 55.68zM1592.32 623.36h-121.6c-21.12 0-38.4-17.28-38.4-38.4s17.28-38.4 38.4-38.4h121.6c21.12 0 38.4 17.28 38.4 38.4s-17.28 38.4-38.4 38.4z" fill="#EDF0F5" /><path d="M1211.52 622.08c-30.72 0-55.68-24.96-55.68-55.68 0-30.72 24.96-55.68 55.68-55.68h1.28V411.52c-26.88-3.84-47.36-26.88-47.36-55.04 0-27.52 20.48-51.2 47.36-55.04V243.2H373.76v61.44c21.12 7.68 35.84 28.16 35.84 51.84 0 23.68-15.36 44.16-35.84 51.84v424.96h839.04v-211.2h-1.28z" fill="#EDF0F5" /><path d="M1068.8 284.16v14.72" fill="#FFFFFF" /><path d="M1068.8 302.72c-1.92 0-3.84-1.92-3.84-3.84v-15.36c0-1.92 1.92-3.84 3.84-3.84s3.84 1.92 3.84 3.84v15.36c0 2.56-1.92 3.84-3.84 3.84z" fill="#333333" /><path d="M1285.76 438.4H1011.2c-9.6 0-17.92 5.76-17.92 12.8v331.52c0 7.04 8.32 12.8 17.92 12.8h342.4c9.6 0 17.92-5.76 17.92-12.8V499.2l-85.76-60.8z" fill="#FFFFFF" /><path d="M1353.6 799.36H1011.2c-12.16 0-21.76-7.68-21.76-16.64V451.2c0-8.96 9.6-16.64 21.76-16.64h274.56c0.64 0 1.28 0 1.92 0.64l85.76 60.8c1.28 0.64 1.92 1.92 1.92 3.2v283.52c0 8.96-9.6 16.64-21.76 16.64zM1011.2 442.24c-7.68 0-14.08 3.84-14.08 8.96v331.52c0 4.48 6.4 8.96 14.08 8.96h342.4c7.68 0 14.08-3.84 14.08-8.96v-281.6l-83.2-58.88H1011.2z" fill="#333333" /><path d="M1297.92 500.48h69.76L1280 438.4v49.28c0 7.04 8.32 12.8 17.92 12.8z" fill="#05A4E2" /><path d="M1367.68 503.68h-69.76c-11.52 0-21.12-7.04-21.12-16v-49.28c0-1.28 0.64-2.56 1.92-2.56s2.56-0.64 3.2 0l87.68 62.08c1.28 0.64 1.92 2.56 1.28 3.84-0.64 1.28-1.92 1.92-3.2 1.92z m-84.48-58.88v43.52c0 5.12 6.4 9.6 14.72 9.6h59.52l-74.24-53.12z" fill="#333333" /><path d="M1046.4 576h276.48" fill="#FFFFFF" /><path d="M1322.88 579.84h-276.48c-1.92 0-3.84-1.92-3.84-3.84s1.92-3.84 3.84-3.84h276.48c1.92 0 3.84 1.92 3.84 3.84s-1.92 3.84-3.84 3.84z" fill="#333333" /><path d="M1046.4 603.52h276.48" fill="#FFFFFF" /><path d="M1322.88 607.36h-276.48c-1.92 0-3.84-1.92-3.84-3.84s1.92-3.84 3.84-3.84h276.48c1.92 0 3.84 1.92 3.84 3.84s-1.92 3.84-3.84 3.84z" fill="#333333" /><path d="M1046.4 630.4h276.48" fill="#FFFFFF" /><path d="M1322.88 634.24h-276.48c-1.92 0-3.84-1.92-3.84-3.84s1.92-3.84 3.84-3.84h276.48c1.92 0 3.84 1.92 3.84 3.84s-1.92 3.84-3.84 3.84z" fill="#333333" /><path d="M838.4 794.24V456.96c0-6.4-5.12-10.88-10.88-10.88H295.04c-6.4 0-10.88 5.12-10.88 10.88v337.28H838.4z" fill="#FFFFFF" /><path d="M838.4 798.08H283.52c-1.92 0-3.84-1.92-3.84-3.84V456.96c0-8.32 7.04-14.72 14.72-14.72h532.48c8.32 0 14.72 7.04 14.72 14.72v337.28c0.64 2.56-1.28 3.84-3.2 3.84z m-551.04-7.68h547.2V456.96c0-3.84-3.2-7.04-7.04-7.04H295.04c-3.84 0-7.04 3.2-7.04 7.04v333.44z" fill="#333333" /><path d="M838.4 496v-39.04c0-6.4-5.12-10.88-10.88-10.88H295.04c-6.4 0-10.88 5.12-10.88 10.88v39.04H838.4z" fill="#FFFFFF" /><path d="M838.4 499.84H283.52c-1.92 0-3.84-1.92-3.84-3.84v-39.04c0-8.32 7.04-14.72 14.72-14.72h532.48c8.32 0 14.72 7.04 14.72 14.72v39.04c0.64 2.56-1.28 3.84-3.2 3.84z m-551.04-7.68h547.2v-35.2c0-3.84-3.2-7.04-7.04-7.04H295.04c-3.84 0-7.04 3.2-7.04 7.04v35.2z" fill="#333333" /><path d="M330.88 472.32h11.52" fill="#FFFFFF" /><path d="M342.4 476.16h-10.88c-1.92 0-3.84-1.92-3.84-3.84s1.92-3.84 3.84-3.84h10.88c1.92 0 3.84 1.92 3.84 3.84s-1.92 3.84-3.84 3.84z" fill="#333333" /><path d="M353.28 472.32h10.88" fill="#FFFFFF" /><path d="M364.16 476.16h-10.88c-1.92 0-3.84-1.92-3.84-3.84s1.92-3.84 3.84-3.84h10.88c1.92 0 3.84 1.92 3.84 3.84s-1.28 3.84-3.84 3.84z" fill="#333333" /><path d="M308.48 472.32H320" fill="#FFFFFF" /><path d="M320 476.16h-10.88c-1.92 0-3.84-1.92-3.84-3.84s1.92-3.84 3.84-3.84H320c1.92 0 3.84 1.92 3.84 3.84s-1.92 3.84-3.84 3.84z" fill="#333333" /><path d="M336 576h197.12" fill="#FFFFFF" /><path d="M533.12 579.84H336c-1.92 0-3.84-1.92-3.84-3.84s1.92-3.84 3.84-3.84h196.48c1.92 0 3.84 1.92 3.84 3.84s-1.28 3.84-3.2 3.84z" fill="#333333" /><path d="M336 603.52h197.12" fill="#FFFFFF" /><path d="M533.12 607.36H336c-1.92 0-3.84-1.92-3.84-3.84s1.92-3.84 3.84-3.84h196.48c1.92 0 3.84 1.92 3.84 3.84s-1.28 3.84-3.2 3.84z" fill="#333333" /><path d="M336 630.4h197.12" fill="#FFFFFF" /><path d="M533.12 634.24H336c-1.92 0-3.84-1.92-3.84-3.84s1.92-3.84 3.84-3.84h196.48c1.92 0 3.84 1.92 3.84 3.84s-1.28 3.84-3.2 3.84z" fill="#333333" /><path d="M1020.16 343.04H635.52L510.08 534.4v279.68c0 9.6 7.04 17.28 15.36 17.28h604.16c8.32 0 15.36-7.68 15.36-17.28V534.4l-124.8-191.36z" fill="#FFFFFF" /><path d="M1129.6 835.2H525.44c-10.24 0-19.2-9.6-19.2-21.12V534.4c0-0.64 0-1.28 0.64-1.92l125.44-191.36c0.64-1.28 1.92-1.92 3.2-1.92h384.64c1.28 0 2.56 0.64 3.2 1.92l125.44 191.36c0.64 0.64 0.64 1.28 0.64 1.92v279.68c-0.64 11.52-8.96 21.12-19.84 21.12zM513.92 535.68v278.4c0 7.04 5.12 13.44 11.52 13.44h604.16c6.4 0 11.52-5.76 11.52-13.44V535.68L1017.6 346.88H637.44L513.92 535.68z" fill="#333333" /><path d="M919.04 761.6h-182.4c-9.6 0-17.28-3.2-17.28-7.68v-3.2c0-4.48 7.68-7.68 17.28-7.68h182.4c9.6 0 17.28 3.2 17.28 7.68v3.2c0 4.48-7.68 7.68-17.28 7.68z" fill="#C5ECFF" /><path d="M919.04 765.44h-182.4c-10.88 0-21.12-3.84-21.12-11.52v-3.2c0-7.68 10.88-11.52 21.12-11.52h182.4c10.88 0 21.12 3.84 21.12 11.52v3.2c0 7.68-10.88 11.52-21.12 11.52z m-182.4-17.92c-8.32 0-13.44 2.56-13.44 3.84v3.2c0.64 1.28 5.12 3.84 13.44 3.84h182.4c8.32 0 13.44-2.56 13.44-3.84v-3.2c-0.64-0.64-5.12-3.84-13.44-3.84h-182.4z" fill="#333333" /><path d="M1120.64 536.32l-109.44-172.8h-366.08l-109.44 172.8H640v99.84c0 9.6 7.04 17.28 15.36 17.28h345.6c8.32 0 15.36-7.68 15.36-17.28V536.32h104.32z" fill="#C7E8FF" /><path d="M1000.32 657.28h-345.6c-10.24 0-19.2-9.6-19.2-21.12v-96H535.04c-1.28 0-2.56-0.64-3.2-1.92s-0.64-2.56 0-3.84l109.44-172.8c0.64-1.28 1.92-1.92 3.2-1.92h366.08c1.28 0 2.56 0.64 3.2 1.92l109.44 172.8c0.64 1.28 0.64 2.56 0 3.84s-1.92 1.92-3.2 1.92h-100.48v96c0 11.52-8.32 21.12-19.2 21.12zM542.08 532.48H640c1.92 0 3.84 1.92 3.84 3.84v99.84c0 7.04 5.12 13.44 11.52 13.44h345.6c6.4 0 11.52-5.76 11.52-13.44V536.32c0-1.92 1.92-3.84 3.84-3.84H1113.6l-104.96-165.12h-361.6L542.08 532.48z" fill="#333333" /><path d="M748.8 302.72l14.72 29.44 32.64 5.12-23.68 22.4 5.76 32.64-29.44-15.36-28.8 15.36 5.12-32.64-23.04-22.4 32-5.12z" fill="#05A4E2" /><path d="M778.24 395.52c-0.64 0-1.28 0-1.28-0.64l-27.52-14.72-27.52 14.72c-1.28 0.64-2.56 0.64-3.2 0-1.28-0.64-1.28-1.92-1.28-3.2l5.12-30.72-22.4-21.76c-0.64-0.64-1.28-1.92-0.64-3.2s1.28-1.92 2.56-1.92l30.72-4.48 14.08-28.16c1.28-1.92 4.48-1.92 5.76 0l14.08 28.16 30.72 4.48c1.28 0 1.92 1.28 2.56 1.92 0.64 1.28 0 2.56-0.64 3.2l-22.4 21.76 5.12 30.72c0 1.28 0 2.56-1.28 3.2-1.28 0.64-1.92 0.64-2.56 0.64z m-29.44-21.76c0.64 0 1.28 0 1.28 0.64l23.04 12.16-4.48-26.24c0-1.28 0-1.92 0.64-2.56l18.56-18.56-26.24-3.84c-1.28 0-1.92-0.64-2.56-1.92l-11.52-23.68-11.52 23.68c-0.64 0.64-1.28 1.28-2.56 1.92l-26.24 3.84 18.56 18.56c0.64 0.64 1.28 1.92 0.64 2.56l-4.48 26.24 23.04-12.16c3.2-0.64 3.2-0.64 3.84-0.64z" fill="#333333" /><path d="M1068.8 355.84m-104.96 0a104.96 104.96 0 1 0 209.92 0 104.96 104.96 0 1 0-209.92 0Z" fill="#FFFFFF" /><path d="M1068.8 464.64c-60.16 0-108.8-48.64-108.8-108.8s48.64-108.8 108.8-108.8 108.8 48.64 108.8 108.8c-0.64 59.52-49.28 108.8-108.8 108.8z m0-209.92c-55.68 0-101.12 45.44-101.12 101.12s45.44 101.12 101.12 101.12 101.12-45.44 101.12-101.12-46.08-101.12-101.12-101.12z" fill="#333333" /><path d="M413.44 666.24h27.52v27.52h-27.52z" fill="#05A4E2" /><path d="M440.96 696.96h-27.52c-1.92 0-3.2-1.28-3.2-3.2v-27.52c0-1.92 1.28-3.2 3.2-3.2h27.52c1.92 0 3.2 1.28 3.2 3.2v27.52c0 1.28-1.92 3.2-3.2 3.2z m-24.32-6.4h21.12v-21.12h-21.12v21.12z" fill="#333333" /><path d="M337.92 666.24h27.52v27.52h-27.52z" fill="#FFFFFF" /><path d="M365.44 697.6h-27.52c-1.92 0-3.84-1.92-3.84-3.84v-27.52c0-1.92 1.92-3.84 3.84-3.84h27.52c1.92 0 3.84 1.92 3.84 3.84v27.52c0 1.92-1.28 3.84-3.84 3.84z m-23.68-7.68h19.84v-19.84h-19.84v19.84z" fill="#333333" /><path d="M1004.8 386.56h127.36" fill="#FFFFFF" /><path d="M1132.16 390.4H1004.8c-1.92 0-3.84-1.92-3.84-3.84s1.92-3.84 3.84-3.84h126.72c1.92 0 3.84 1.92 3.84 3.84s-1.28 3.84-3.2 3.84z" fill="#333333" /><path d="M1057.28 399.36c0 6.4 5.12 11.52 10.88 11.52 6.4 0 10.88-5.12 10.88-11.52" fill="#FFFFFF" /><path d="M1068.8 414.72c-8.32 0-14.72-7.04-14.72-15.36 0-1.92 1.92-3.84 3.84-3.84s3.84 1.92 3.84 3.84c0 3.84 3.2 7.68 7.04 7.68s7.04-3.2 7.04-7.68c0-1.92 1.92-3.84 3.84-3.84s3.84 1.92 3.84 3.84c0 8.32-7.04 15.36-14.72 15.36z" fill="#333333" /><path d="M924.16 506.88l10.88 23.04 24.96 3.2-17.92 17.92 4.48 24.96-22.4-11.52-22.4 11.52 3.84-24.96-17.92-17.92 24.96-3.2z" fill="#05A4E2" /><path d="M946.56 579.2c-0.64 0-1.28 0-1.28-0.64l-21.12-10.88-21.12 10.88c-1.28 0.64-2.56 0.64-3.2 0-1.28-0.64-1.28-1.92-1.28-3.2l3.84-23.04-16.64-16.64c-0.64-0.64-1.28-1.92-0.64-3.2s1.28-1.92 2.56-1.92l23.04-3.2 10.24-21.12c1.28-1.92 4.48-1.92 5.76 0l10.24 21.12 23.04 3.2c1.28 0 1.92 1.28 2.56 1.92 0.64 1.28 0 2.56-0.64 3.2l-16.64 16.64 3.84 23.04c0 1.28 0 2.56-1.28 3.2 0 0.64-0.64 0.64-1.28 0.64z m-22.4-17.92c0.64 0 1.28 0 1.28 0.64l16.64 8.96-3.2-18.56c0-1.28 0-1.92 0.64-2.56l13.44-12.8-18.56-2.56c-1.28 0-1.92-0.64-2.56-1.92l-8.32-16.64-8.32 16.64c-0.64 0.64-1.28 1.28-2.56 1.92l-18.56 2.56 13.44 12.8c0.64 0.64 1.28 1.92 0.64 2.56l-3.2 18.56 16.64-8.96c1.28-0.64 1.92-0.64 2.56-0.64z" fill="#333333" /><path d="M261.12 830.72l1179.52-2.56" fill="#FFFFFF" /><path d="M261.1136 827.52l1179.52-3.84 0.0256 7.68-1179.52 3.84z" fill="#333333" /><path d="M235.52 830.72h-32" fill="#FFFFFF" /><path d="M203.52 826.88h32v7.68h-32z" fill="#333333" /><path d="M1489.92 824.32h-32" fill="#FFFFFF" /><path d="M1457.92 820.48h32v7.68h-32z" fill="#333333" /><path d="M1116.16 386.56v-35.84c0-26.88-21.12-48.64-47.36-48.64-26.24 0-47.36 21.76-47.36 48.64v35.84h94.72z" fill="#05A4E2" /><path d="M1116.16 389.76h-94.72c-1.92 0-3.2-1.28-3.2-3.2v-35.84c0-28.8 23.04-51.84 50.56-51.84s50.56 23.04 50.56 51.84v35.84c0 1.92-1.92 3.2-3.2 3.2z m-92.16-6.4h88.32v-32.64c0-24.96-19.84-45.44-44.16-45.44s-44.16 20.48-44.16 45.44v32.64z" fill="#333333" /><path d="M1068.8 284.16v14.72" fill="#05A4E2" /><path d="M1065.6 284.16h6.4v15.36h-6.4z" fill="#333333" /></svg>